# xmcd
#
# Track frame offsets:
#	150
#	13418
#	28428
#	42533
#	56044
#	70243
#	82244
#	97709
#	110467
#	124810
#	138355
#	151306
#
# Disc length: 2178 seconds
#
# Revision: 0
# Processed by: cddbd v1.5.2PL0 Copyright (c) Steve Scherf et al.
# Submitted via: EZCDAudioConverter 1.3.4.1
#
DISCID=ab08800c
DTITLE=Bonnie Dobson - Bonnie Dobson (1969)
DYEAR=1900
DGENRE=
TTITLE0=I Got Stung
TTITLE1=Morning Dew
TTITLE2=Let's Get Together
TTITLE3=I'm Your Woman
TTITLE4=Time
TTITLE5=Rainy Windows
TTITLE6=Everybody's Talkin'
TTITLE7=Bird Of Space
TTITLE8=You Never Wanted Me
TTITLE9=Pendant Que
TTITLE10=Elevator Man
TTITLE11=Winter's Going
EXTD=
EXTT0=
EXTT1=
EXTT2=
EXTT3=
EXTT4=
EXTT5=
EXTT6=
EXTT7=
EXTT8=
EXTT9=
EXTT10=
EXTT11=
PLAYORDER=
